<svg width="24" height="24" viewBox="0 0 24 24" fill="none" xmlns="http://www.w3.org/2000/svg">
<path d="M19.15 10.35H17.65V7.14999C17.65 4.04999 15.1 1.5 12 1.5C8.90003 1.5 6.35004 4.04999 6.35004 7.14999V10.35H4.85004V7.14999C4.85004 3.19999 8.05003 0 12 0C15.95 0 19.15 3.19999 19.15 7.14999V10.35Z" fill="#17181D"/>
<path d="M18.4 23.95H5.60002C4.30002 23.95 3.20001 22.85 3.20001 21.55V11.95C3.20001 10.65 4.30002 9.54999 5.60002 9.54999H18.4C19.7 9.54999 20.8 10.65 20.8 11.95V21.55C20.8 22.9 19.7 23.95 18.4 23.95ZM5.60002 11.15C5.15002 11.15 4.80002 11.5 4.80002 11.95V21.55C4.80002 22 5.15002 22.35 5.60002 22.35H18.4C18.85 22.35 19.2 22 19.2 21.55V11.95C19.2 11.5 18.85 11.15 18.4 11.15H5.60002Z" fill="#17181D"/>
<path d="M13.6 14.35C13.6 15.25 12.9 15.95 12 15.95C11.1 15.95 10.4 15.25 10.4 14.35C10.4 13.45 11.1 12.75 12 12.75C12.9 12.75 13.6 13.5 13.6 14.35Z" fill="#17181D"/>
<path d="M12.4 14.35H11.6L10.8 19.15H13.2L12.4 14.35Z" fill="#17181D"/>
</svg>
