<svg width="24" height="24" viewBox="0 0 24 24" fill="none" xmlns="http://www.w3.org/2000/svg">
<path d="M6 14.5L1.5 9L8 7.5L12 1L16 7.5L23 9L18 14.5L18.5 22.5L12 19.5L5.5 22.5L6 14.5Z" fill="#FCFF60"/>
<path d="M23.9104 8.94735C23.7026 8.32877 23.1694 7.87587 22.5274 7.77755L16.2829 6.8191L13.5686 1.00181C13.2829 0.390968 12.6716 0 11.9996 0C11.3276 0 10.7164 0.390968 10.4306 1.00181L7.71639 6.8191L1.47114 7.77755C0.829889 7.87587 0.296639 8.32877 0.089639 8.94735C-0.116611 9.56748 0.039389 10.2503 0.492389 10.7164L5.06889 15.4328L4.00764 21.9755C3.89964 22.6343 4.17639 23.2955 4.71864 23.681C5.01639 23.8924 5.36664 24 5.71689 24C6.00489 24 6.29364 23.9272 6.55539 23.7825L11.9996 20.7569L17.4446 23.7825C17.7064 23.9272 17.9951 24 18.2824 24C18.6326 24 18.9829 23.8924 19.2814 23.681C19.8236 23.2955 20.0989 22.6343 19.9916 21.9755L18.9296 15.4328L23.5076 10.7164C23.9599 10.2495 24.1151 9.56671 23.9104 8.94735ZM17.6906 14.2165C17.3066 14.6114 17.1326 15.168 17.2204 15.7138L18.2824 22.2565L12.8374 19.2325C12.5764 19.087 12.2884 19.015 11.9989 19.015C11.7109 19.015 11.4221 19.0877 11.1611 19.2325L5.71614 22.2565L6.77814 15.7138C6.86664 15.168 6.69264 14.6114 6.30864 14.2165L1.73214 9.50013L7.97664 8.54013C8.54739 8.45265 9.03864 8.08413 9.28389 7.55845L11.9996 1.74271L14.7146 7.55923C14.9606 8.0849 15.4511 8.45264 16.0211 8.5409L22.2671 9.5009L17.6906 14.2165Z" fill="#17181D"/>
</svg>
