<svg width="24" height="24" viewBox="0 0 24 24" fill="none" xmlns="http://www.w3.org/2000/svg">
<path d="M2 5.88892H21.5556" stroke="#333333" stroke-width="2" stroke-linecap="round" stroke-linejoin="round"/>
<path d="M3.22223 5.88892L4.44445 20.5556C4.44445 21.2039 4.70199 21.8257 5.16041 22.2841C5.61883 22.7425 6.24059 23 6.8889 23H16.6667C17.315 23 17.9367 22.7425 18.3952 22.2841C18.8536 21.8257 19.1111 21.2039 19.1111 20.5556L20.3333 5.88892" stroke="#333333" stroke-width="2" stroke-linecap="round" stroke-linejoin="round"/>
<path d="M8.11108 5.88889V2.22222C8.11108 1.89807 8.23985 1.58719 8.46906 1.35798C8.69828 1.12877 9.00915 1 9.33331 1H14.2222C14.5463 1 14.8572 1.12877 15.0864 1.35798C15.3156 1.58719 15.4444 1.89807 15.4444 2.22222V5.88889" stroke="#333333" stroke-width="2" stroke-linecap="round" stroke-linejoin="round"/>
<path d="M9.33331 12L14.2222 16.8889M14.2222 12L9.33331 16.8889" stroke="#333333" stroke-width="2" stroke-linecap="round" stroke-linejoin="round"/>
</svg>
