<svg width="24" height="24" viewBox="0 0 24 24" fill="none" xmlns="http://www.w3.org/2000/svg">
<path d="M6.20001 10.3H4.70001V7.09999C4.70001 3.19999 7.90002 0 11.8 0C15.4 0 18.4 2.65 18.85 6.2L17.4 6.39999C17.05 3.59999 14.65 1.5 11.8 1.5C8.70002 1.5 6.20001 3.99999 6.20001 7.09999V10.3Z" fill="#17181D"/>
<path d="M18.15 23.8H5.40001C4.10001 23.8 3 22.75 3 21.4V11.85C3 10.55 4.05001 9.45001 5.40001 9.45001H18.15C19.45 9.45001 20.55 10.5 20.55 11.85V21.4C20.55 22.75 19.5 23.8 18.15 23.8ZM5.45 11.1C5 11.1 4.65001 11.45 4.65001 11.9V21.45C4.65001 21.9 5 22.25 5.45 22.25H18.2C18.65 22.25 19 21.9 19 21.45V11.9C19 11.45 18.65 11.1 18.2 11.1H5.45Z" fill="#17181D"/>
<path d="M13.4 14.25C13.4 15.15 12.7 15.85 11.8 15.85C10.9 15.85 10.2 15.15 10.2 14.25C10.2 13.35 10.9 12.65 11.8 12.65C12.7 12.65 13.4 13.4 13.4 14.25Z" fill="#17181D"/>
<path d="M12.2 14.25H11.4L10.6 19.05H13L12.2 14.25Z" fill="#17181D"/>
</svg>
