<svg width="24" height="24" viewBox="0 0 24 24" fill="none" xmlns="http://www.w3.org/2000/svg">
<path d="M0.485592 23.9965C0.422402 23.9969 0.35976 23.9848 0.30126 23.9609C0.24276 23.937 0.189552 23.9019 0.144687 23.8574C0.0821359 23.7963 0.03745 23.7194 0.0154499 23.6348C-0.00655014 23.5503 -0.00502915 23.4613 0.0198485 23.3776L2.09409 15.0914C2.12071 14.9923 2.1784 14.9044 2.25869 14.8405C2.33898 14.7766 2.43765 14.7401 2.54023 14.7363C2.6428 14.7326 2.74388 14.7617 2.82864 14.8196C2.9134 14.8775 2.97737 14.9609 3.01117 15.0578C3.15084 15.4414 3.36597 15.7931 3.64388 16.0922C3.92179 16.3914 4.25684 16.6318 4.62927 16.7995C4.92127 16.9409 5.23986 17.0192 5.56421 17.0291C5.88856 17.039 6.21135 16.9804 6.51146 16.857C6.6001 16.8182 6.69843 16.807 6.79354 16.825C6.88865 16.843 6.9761 16.8893 7.04442 16.9578C7.11299 17.0261 7.15931 17.1135 7.1773 17.2085C7.1953 17.3035 7.18413 17.4018 7.14525 17.4904C7.02185 17.7913 6.96361 18.1149 6.97437 18.4399C6.98513 18.7649 7.06464 19.0839 7.20767 19.376C7.37256 19.7468 7.61001 20.0808 7.90603 20.3585C8.20206 20.6362 8.55069 20.8519 8.9314 20.993C9.03078 21.0263 9.1165 21.0913 9.17546 21.178C9.23441 21.2646 9.26337 21.3681 9.2579 21.4728C9.25393 21.576 9.21674 21.6751 9.15186 21.7555C9.08699 21.8359 8.99788 21.8932 8.89779 21.919L0.600828 23.9965C0.562555 24.0012 0.523865 24.0012 0.485592 23.9965ZM2.73269 16.5164L1.1434 22.8594L7.49096 21.2712C6.99147 20.8683 6.59349 20.3539 6.329 19.7695C6.06791 19.2096 5.96496 18.5891 6.03131 17.975C5.41678 18.0413 4.7958 17.9384 4.23555 17.6775C3.65064 17.4132 3.13591 17.0155 2.73269 16.5164Z" fill="#17181D"/>
<path d="M8.77296 21.9238C8.72377 21.933 8.6733 21.933 8.62411 21.9238C8.11739 21.742 7.65278 21.4596 7.25832 21.0934C6.86385 20.7273 6.54772 20.2851 6.329 19.7935C6.06791 19.2336 5.96497 18.6131 6.03131 17.999C5.41678 18.0653 4.79581 17.9624 4.23556 17.7015C3.74361 17.483 3.30108 17.1671 2.93467 16.7729C2.56827 16.3787 2.28559 15.9144 2.1037 15.4081C2.07762 15.3251 2.07457 15.2367 2.09486 15.1522C2.11516 15.0677 2.15804 14.9903 2.21893 14.9283L14.1362 2.98593C14.2262 2.89656 14.3479 2.84641 14.4747 2.84641C14.6016 2.84641 14.7233 2.89656 14.8132 2.98593L17.9198 6.09506L21.0311 9.19939C21.1206 9.28929 21.1708 9.4109 21.1708 9.53765C21.1708 9.66441 21.1206 9.78602 21.0311 9.87592L9.12827 21.7847C9.08171 21.8309 9.02615 21.8671 8.96504 21.891C8.90393 21.9149 8.83855 21.9261 8.77296 21.9238ZM6.72753 16.8235C6.80739 16.8232 6.88607 16.8428 6.95643 16.8806C7.02678 16.9184 7.0866 16.9731 7.13046 17.0398C7.17432 17.1065 7.20084 17.1831 7.20762 17.2626C7.21439 17.3421 7.20121 17.4221 7.16926 17.4952C7.04284 17.7938 6.98091 18.1156 6.98753 18.4397C6.99415 18.7638 7.06916 19.0829 7.20767 19.376C7.49845 20.03 8.00765 20.5626 8.64812 20.8826L20.0132 9.54005L14.4723 4.00311L3.12161 15.3601C3.44191 16.0001 3.97488 16.5089 4.62928 16.7995C4.92127 16.941 5.23987 17.0192 5.56421 17.0291C5.88856 17.0391 6.21135 16.9804 6.51146 16.8571C6.58035 16.8309 6.65395 16.8195 6.72753 16.8235Z" fill="#17181D"/>
<path d="M20.6903 10.0198C20.6267 10.0196 20.5639 10.0067 20.5054 9.982C20.4468 9.95729 20.3938 9.92122 20.3493 9.87589L14.1362 3.66722C14.0912 3.62262 14.0555 3.56955 14.0311 3.51108C14.0068 3.45261 13.9942 3.3899 13.9942 3.32656C13.9942 3.26322 14.0068 3.20051 14.0311 3.14204C14.0555 3.08357 14.0912 3.0305 14.1362 2.9859L15.6871 1.44573C15.7317 1.40076 15.7848 1.36506 15.8434 1.3407C15.9019 1.31634 15.9646 1.3038 16.028 1.3038C16.0914 1.3038 16.1542 1.31634 16.2127 1.3407C16.2712 1.36506 16.3243 1.40076 16.3689 1.44573L19.4755 4.55486L22.5724 7.6448C22.6174 7.6894 22.6532 7.74247 22.6775 7.80094C22.7019 7.85941 22.7145 7.92212 22.7145 7.98546C22.7145 8.0488 22.7019 8.11151 22.6775 8.16998C22.6532 8.22845 22.6174 8.28151 22.5724 8.32612L21.0168 9.87589C20.9305 9.964 20.8136 10.0155 20.6903 10.0198ZM15.1541 3.32656L20.6903 8.8587L21.5641 7.98546L16.028 2.45332L15.1541 3.32656Z" fill="#17181D"/>
<path d="M22.2459 8.46528C22.1827 8.46564 22.1201 8.45354 22.0616 8.42966C22.0031 8.40579 21.9499 8.3706 21.905 8.32614L15.6631 2.11267C15.6186 2.06784 15.5834 2.01467 15.5595 1.95621C15.5356 1.89775 15.5235 1.83516 15.5238 1.77201C15.5256 1.64498 15.5753 1.5233 15.6631 1.43135C16.578 0.515773 17.8195 0.000900975 19.1144 1.18134e-06C20.4092 -0.000898612 21.6514 0.512247 22.5676 1.42655C23.4839 2.34086 23.9991 3.58143 24 4.87535C24.0009 6.16927 23.4874 7.41056 22.5724 8.32614C22.4854 8.41249 22.3685 8.46228 22.2459 8.46528ZM16.729 1.7912L22.2267 7.28496C22.8123 6.53167 23.1025 5.59067 23.0429 4.63867C22.9833 3.68667 22.578 2.78915 21.903 2.11467C21.2281 1.44018 20.3299 1.03513 19.3772 0.975571C18.4245 0.916012 17.4828 1.20604 16.729 1.7912Z" fill="#17181D"/>
<path d="M10.8472 11.0418C10.784 11.0422 10.7214 11.0301 10.6629 11.0062C10.6044 10.9823 10.5512 10.9472 10.5063 10.9027C10.4169 10.8128 10.3667 10.6912 10.3667 10.5644C10.3667 10.4377 10.4169 10.3161 10.5063 10.2262L14.1362 6.59884C14.2262 6.50948 14.3479 6.45932 14.4747 6.45932C14.6016 6.45932 14.7233 6.50948 14.8132 6.59884C14.8582 6.64345 14.8939 6.69651 14.9183 6.75498C14.9427 6.81345 14.9553 6.87617 14.9553 6.9395C14.9553 7.00284 14.9427 7.06556 14.9183 7.12403C14.8939 7.18249 14.8582 7.23556 14.8132 7.28017L11.1881 10.9027C11.1432 10.9472 11.09 10.9823 11.0315 11.0062C10.973 11.0301 10.9104 11.0422 10.8472 11.0418Z" fill="#17181D"/>
</svg>
